<svg width="20" height="16" viewBox="0 0 20 16" fill="none" xmlns="http://www.w3.org/2000/svg">
<path d="M19.6344 8.25758L12.9975 14.8946C12.4049 15.4872 11.3777 15.0724 11.3777 14.223V10.4304H6.0049C5.47947 10.4304 5.05676 10.0077 5.05676 9.48226V5.68969C5.05676 5.16427 5.47947 4.74155 6.0049 4.74155H11.3777V0.948983C11.3777 0.103556 12.4009 -0.315207 12.9975 0.277382L19.6344 6.91438C20.0019 7.28573 20.0019 7.88622 19.6344 8.25758ZM7.58514 14.697V13.1168C7.58514 12.8561 7.37181 12.6427 7.11107 12.6427H3.79257C3.09331 12.6427 2.52838 12.0778 2.52838 11.3785V3.79341C2.52838 3.09415 3.09331 2.52922 3.79257 2.52922H7.11107C7.37181 2.52922 7.58514 2.31589 7.58514 2.05515V0.474911C7.58514 0.214172 7.37181 0.000840235 7.11107 0.000840235H3.79257C1.69875 0.000840235 0 1.6996 0 3.79341V11.3785C0 13.4724 1.69875 15.1711 3.79257 15.1711H7.11107C7.37181 15.1711 7.58514 14.9578 7.58514 14.697Z" fill="white"/>
</svg>
