<svg width="24" height="24" viewBox="0 0 24 24" fill="none" xmlns="http://www.w3.org/2000/svg">
<path d="M16.9215 14.25C15.4435 14.25 14.7329 15 12.3075 15C9.88202 15 9.17653 14.25 7.69346 14.25C3.87249 14.25 0.772461 17.0719 0.772461 20.55V21.75C0.772461 22.9922 1.87961 24 3.24425 24H21.3707C22.7353 24 23.8425 22.9922 23.8425 21.75V20.55C23.8425 17.0719 20.7424 14.25 16.9215 14.25ZM21.3707 21.75H3.24425V20.55C3.24425 18.3188 5.24227 16.5 7.69346 16.5C8.4453 16.5 9.66574 17.25 12.3075 17.25C14.9698 17.25 16.1645 16.5 16.9215 16.5C19.3726 16.5 21.3707 18.3188 21.3707 20.55V21.75ZM12.3075 13.5C16.4014 13.5 19.7228 10.4766 19.7228 6.75C19.7228 3.02344 16.4014 0 12.3075 0C8.21357 0 4.8921 3.02344 4.8921 6.75C4.8921 10.4766 8.21357 13.5 12.3075 13.5ZM12.3075 2.25C15.0316 2.25 17.251 4.27031 17.251 6.75C17.251 9.22969 15.0316 11.25 12.3075 11.25C9.58335 11.25 7.36389 9.22969 7.36389 6.75C7.36389 4.27031 9.58335 2.25 12.3075 2.25Z" fill="white"/>
</svg>
